<svg height="320" version="1.1" width="320" xmlns="http://www.w3.org/2000/svg" xmlns:xlink="http://www.w3.org/1999/xlink" style="overflow: hidden; position: relative; left: -0.5px; top: -0.796875px;" viewBox="0 0 320 320" preserveAspectRatio="xMidYMid meet" id="main_svg"><svg height="320" version="1.1" width="320" xmlns="http://www.w3.org/2000/svg" xmlns:xlink="http://www.w3.org/1999/xlink" style="overflow: hidden; position: relative;" viewBox="0 0 160 160" preserveAspectRatio="xMidYMid meet" id="imported_svg_layer_1"><path fill="#000000" stroke="#000000" d="M80,0L160,40V120L80,160L0,120V40L80,0" stroke-width="10" opacity="1" fill-opacity="1" transform="matrix(1,0,0,1,0,0)" style="-webkit-tap-highlight-color: rgba(0, 0, 0, 0); opacity: 1; fill-opacity: 1;"></path><desc style="-webkit-tap-highlight-color: rgba(0, 0, 0, 0);">Created with Logotizer</desc><defs style="-webkit-tap-highlight-color: rgba(0, 0, 0, 0);"><linearGradient id="gradient_zp6jw8l4qbsq80026gozxl" x1="1.8369701987210297e-16" y1="0" x2="0" y2="1" style="-webkit-tap-highlight-color: rgba(0, 0, 0, 0);"><stop offset="0%" stop-color="#d7ccc8" stop-opacity="1" style="-webkit-tap-highlight-color: rgba(0, 0, 0, 0);"></stop><stop offset="100%" stop-color="#4f5f6d" stop-opacity="1" style="-webkit-tap-highlight-color: rgba(0, 0, 0, 0);"></stop></linearGradient></defs></svg><svg height="320" version="1.1" width="320" xmlns="http://www.w3.org/2000/svg" xmlns:xlink="http://www.w3.org/1999/xlink" style="overflow: hidden; position: relative;" viewBox="0 0 160 160" preserveAspectRatio="xMidYMid meet" id="imported_svg_layer_2"><desc style="-webkit-tap-highlight-color: rgba(0, 0, 0, 0);">Created with Logotizer</desc><defs style="-webkit-tap-highlight-color: rgba(0, 0, 0, 0);"></defs><path fill="#ffffff" stroke="#d5d5d5" d="M20,102.5H50V145L80,160L110,145V102.5H140L80,50L20,102.5" stroke-width="2" transform="matrix(1,0,0,1,0,0)" style="-webkit-tap-highlight-color: rgba(0, 0, 0, 0); display: none; cursor: move;"></path></svg><desc style="-webkit-tap-highlight-color: rgba(0, 0, 0, 0);">Created with Logotizer</desc><defs style="-webkit-tap-highlight-color: rgba(0, 0, 0, 0);"></defs><path fill="#ffffff" stroke="none" d="M-249.96,-84.02L-249.96,0L-260.51,0L-260.51,-187.5L-249.96,-187.5L-249.96,-94.57L-171.45,-94.57L-171.45,-187.5L-160.9,-187.5L-160.9,0L-171.45,0L-171.45,-84.02L-249.96,-84.02ZM-1.52,0L-12.07,0L-12.07,-23.44Q-15.12,-19.34,-18.75,-15.59Q-37.62,3.28,-64.34,3.28Q-90.94,3.28,-109.8,-15.59Q-128.67,-34.45,-128.67,-61.05Q-128.67,-87.77,-109.8,-106.64Q-90.94,-125.51,-64.34,-125.51Q-37.62,-125.51,-18.75,-106.64Q-15.12,-102.89,-12.07,-98.79L-12.07,-115.08L-1.52,-115.08L-1.52,0M-12.07,-50.63L-12.07,-71.48Q-15,-86.95,-26.72,-98.67Q-42.3,-114.26,-64.34,-114.26Q-86.37,-114.26,-101.95,-98.67Q-117.54,-83.09,-117.54,-61.05Q-117.54,-39.02,-101.95,-23.5Q-86.37,-7.97,-64.34,-7.97Q-42.3,-7.97,-26.72,-23.55Q-15,-35.27,-12.07,-50.63ZM132.3,-27.66L143.44,-23.67Q140.39,-19.45,136.52,-15.59Q117.66,3.28,90.94,3.28Q64.34,3.28,45.47,-15.59Q26.6,-34.45,26.6,-61.17Q26.6,-87.77,45.47,-106.64Q64.34,-125.51,90.94,-125.51Q117.66,-125.51,136.52,-106.64Q140.39,-102.77,143.44,-98.67L132.3,-94.57Q130.55,-96.68,128.55,-98.79Q112.97,-114.26,90.94,-114.26Q69.02,-114.26,53.44,-98.73Q37.85,-83.2,37.85,-61.17Q37.85,-39.14,53.44,-23.55Q69.02,-7.97,90.94,-7.97Q112.97,-7.97,128.55,-23.55Q130.55,-25.55,132.3,-27.66ZM171.56,-187.5L182.11,-187.5L182.11,-109.1Q195.47,-121.99,214.22,-121.99Q234.61,-121.99,247.38,-109.22Q260.16,-96.45,260.51,-76.99L260.51,0L249.96,0L249.96,-76.05Q249.96,-90.7,239.36,-101.07Q228.75,-111.45,214.22,-111.45Q199.69,-111.45,189.14,-101.25Q184.45,-96.56,182.11,-91.52L182.11,0L171.56,0L171.56,-187.5Z" transform="matrix(1,0,0,1,220,227.75)" style="-webkit-tap-highlight-color: rgba(0, 0, 0, 0);"></path></svg>